<?xml version="1.0" encoding="UTF-8" standalone="no"?><!DOCTYPE svg PUBLIC "-//W3C//DTD SVG 1.1//EN" "http://www.w3.org/Graphics/SVG/1.1/DTD/svg11.dtd"><svg width="100%" height="100%" viewBox="0 0 512 512" version="1.1" xmlns="http://www.w3.org/2000/svg" xmlns:xlink="http://www.w3.org/1999/xlink" xml:space="preserve" style="fill-rule:evenodd;clip-rule:evenodd;stroke-linejoin:round;stroke-miterlimit:1.41421;"><path d="M0,128l512,0l0,256l-512,0l0,-256Zm53.701,152.563l14.705,-1.5c0.697,6.874 2.317,12.515 4.862,16.921c2.545,4.407 6.495,7.969 11.853,10.688c5.357,2.719 11.383,4.078 18.08,4.078c5.946,0 11.196,-1.031 15.75,-3.094c4.553,-2.062 7.942,-4.89 10.165,-8.484c2.223,-3.594 3.335,-7.516 3.335,-11.766c0,-4.312 -1.072,-8.078 -3.214,-11.297c-2.143,-3.218 -5.679,-5.922 -10.608,-8.109c-3.16,-1.438 -10.151,-3.672 -20.973,-6.703c-10.821,-3.031 -18.402,-5.891 -22.741,-8.578c-5.625,-3.438 -9.817,-7.703 -12.576,-12.797c-2.759,-5.094 -4.138,-10.797 -4.138,-17.11c0,-6.937 1.687,-13.421 5.062,-19.453c3.375,-6.031 8.304,-10.609 14.786,-13.734c6.482,-3.125 13.688,-4.688 21.616,-4.688c8.732,0 16.433,1.641 23.103,4.922c6.67,3.282 11.799,8.11 15.388,14.485c3.59,6.375 5.518,13.594 5.786,21.656l-14.946,1.313c-0.804,-8.688 -3.523,-15.251 -8.157,-19.688c-4.634,-4.438 -11.477,-6.656 -20.531,-6.656c-9.429,0 -16.299,2.015 -20.612,6.047c-4.312,4.031 -6.468,8.89 -6.468,14.578c0,4.937 1.526,9 4.58,12.187c3,3.188 10.835,6.453 23.505,9.797c12.669,3.344 21.361,6.266 26.075,8.766c6.858,3.687 11.92,8.359 15.188,14.015c3.268,5.657 4.902,12.172 4.902,19.547c0,7.313 -1.795,14.203 -5.384,20.672c-3.59,6.469 -8.746,11.5 -15.469,15.094c-6.723,3.594 -14.29,5.39 -22.701,5.391c-10.661,-0.001 -19.594,-1.813 -26.799,-5.438c-7.205,-3.625 -12.857,-9.078 -16.955,-16.359c-4.099,-7.282 -6.255,-15.516 -6.469,-24.704Zm212.384,44.157l-48.214,-137.438l-16.795,0l-45.241,137.438l16.553,0l12.938,-41.625l49.259,0l13.741,41.625l17.759,0Zm85.419,0l0,-16.219l-58.017,0l0,-121.219l-15.59,0l0,137.438l73.607,0Zm104.063,-121.219l0,-16.219l-85.179,0l0,137.438l87.911,0l0,-16.219l-72.321,0l0,-46.781l65.169,0l0,-16.125l-65.169,0l0,-42.094l69.589,0Zm-225.804,64.781l-39.937,0l12.937,-40.312c2.733,-8.688 4.849,-17.438 6.349,-26.25c1.821,7.437 4.607,16.937 8.357,28.5l12.294,38.062Z" style="fill:#fff;"/></svg>